<svg width="24" height="25" viewBox="0 0 24 25" fill="none" xmlns="http://www.w3.org/2000/svg">
<path d="M2 12.627C2 7.91291 2 5.55589 3.46447 4.09142C4.92893 2.62695 7.28595 2.62695 12 2.62695C16.714 2.62695 19.0711 2.62695 20.5355 4.09142C22 5.55589 22 7.91291 22 12.627C22 17.341 22 19.698 20.5355 21.1625C19.0711 22.627 16.714 22.627 12 22.627C7.28595 22.627 4.92893 22.627 3.46447 21.1625C2 19.698 2 17.341 2 12.627Z" stroke="white" stroke-width="1.5"/>
<path d="M5.5 8.62695V10.627C5.5 11.7315 6.39543 12.627 7.5 12.627H10.5M10.5 8.62695V12.627M10.5 12.627V16.627M13.5 8.62695V13.827M13.5 13.827V16.627M13.5 13.827L15.4231 11.827M15.4231 11.827L18.5 8.62695M15.4231 11.827L18.5 16.627" stroke="white" stroke-width="1.5" stroke-linecap="round"/>
</svg>
