<svg width="24" height="20" viewBox="0 0 24 20" fill="none" xmlns="http://www.w3.org/2000/svg">
<path d="M0.00358838 9.78908C0.0483936 7.60145 0.0707962 6.50763 0.805116 5.57126C0.939146 5.40035 1.1358 5.19728 1.30062 5.05958C2.20366 4.30513 3.39594 4.30513 5.78048 4.30513C6.63241 4.30513 7.05837 4.30513 7.46442 4.19482C7.5488 4.1719 7.63228 4.14547 7.71468 4.1156C8.11123 3.97184 8.46689 3.72439 9.17822 3.22949C11.9846 1.27697 13.3878 0.300706 14.5656 0.724809C14.7914 0.806122 15.01 0.923493 15.2052 1.06826C16.2233 1.82329 16.3007 3.57997 16.4554 7.09333C16.5127 8.39424 16.5517 9.50764 16.5517 10.127C16.5517 10.7463 16.5127 11.8597 16.4554 13.1606C16.3007 16.6739 16.2233 18.4306 15.2052 19.1856C15.01 19.3304 14.7914 19.4478 14.5656 19.5291C13.3878 19.9532 11.9846 18.9769 9.17822 17.0244C8.46689 16.5295 8.11123 16.2821 7.71468 16.1383C7.63228 16.1084 7.5488 16.082 7.46442 16.0591C7.05837 15.9488 6.63241 15.9488 5.78048 15.9488C3.39594 15.9488 2.20366 15.9488 1.30062 15.1943C1.1358 15.0566 0.939146 14.8536 0.805116 14.6826C0.0707963 13.7463 0.0483937 12.6525 0.0035884 10.4648C0.00123509 10.3499 0 10.2371 0 10.127C0 10.0168 0.00123508 9.90398 0.00358838 9.78908Z" fill="white"/>
<path fill-rule="evenodd" clip-rule="evenodd" d="M20.9874 2.47018C21.3386 2.16142 21.8604 2.21148 22.153 2.58199L21.5172 3.14105C22.153 2.58199 22.1527 2.5816 22.153 2.58199L22.1543 2.58359L22.1557 2.58539L22.159 2.58959L22.1672 2.60039C22.1735 2.60865 22.1813 2.61905 22.1905 2.63161C22.2089 2.65674 22.233 2.6905 22.2618 2.73307C22.3194 2.81823 22.3962 2.93862 22.4855 3.09564C22.6642 3.4098 22.8924 3.86992 23.1173 4.48678C23.5677 5.7226 24 7.57545 24 10.1272C24 12.679 23.5677 14.5319 23.1173 15.7677C22.8924 16.3845 22.6642 16.8447 22.4855 17.1588C22.3962 17.3158 22.3194 17.4362 22.2618 17.5214C22.233 17.564 22.2089 17.5977 22.1905 17.6228C22.1813 17.6354 22.1735 17.6458 22.1672 17.6541L22.159 17.6649L22.1557 17.6691L22.1543 17.6709C22.154 17.6713 22.153 17.6725 21.5172 17.1134L22.153 17.6725C21.8604 18.043 21.3386 18.093 20.9874 17.7843C20.638 17.477 20.5893 16.9301 20.8773 16.5597C20.878 16.5588 20.8793 16.5571 20.8811 16.5545C20.887 16.5466 20.8985 16.5305 20.9149 16.5062C20.9478 16.4577 21.0003 16.3761 21.0662 16.2602C21.1979 16.0286 21.3835 15.6591 21.5724 15.1407C21.9495 14.106 22.3448 12.4658 22.3448 10.1272C22.3448 7.78868 21.9495 6.14844 21.5724 5.11375C21.3835 4.59535 21.1979 4.22586 21.0662 3.99423C21.0003 3.87835 20.9478 3.7968 20.9149 3.74823C20.8985 3.72395 20.887 3.70791 20.8811 3.69994C20.8792 3.69737 20.8779 3.69564 20.8773 3.69474C20.8773 3.69474 20.8773 3.69475 20.8773 3.69474" fill="white"/>
<path fill-rule="evenodd" clip-rule="evenodd" d="M18.9086 5.8709C19.3081 5.63667 19.8119 5.78857 20.0339 6.21018L19.3105 6.63428C20.0339 6.21018 20.0337 6.2098 20.0339 6.21018L20.0347 6.2117L20.0356 6.21333L20.0374 6.21688L20.0417 6.22516L20.0523 6.24653C20.0603 6.26291 20.0701 6.28359 20.0814 6.30863C20.104 6.35873 20.1326 6.42626 20.1651 6.51189C20.23 6.68325 20.3101 6.92653 20.388 7.24699C20.5439 7.88848 20.6898 8.83479 20.6898 10.1274C20.6898 11.4199 20.5439 12.3663 20.388 13.0078C20.3101 13.3282 20.23 13.5715 20.1651 13.7428C20.1326 13.8285 20.104 13.896 20.0814 13.9461C20.0701 13.9711 20.0603 13.9918 20.0523 14.0082L20.0417 14.0296L20.0374 14.0379L20.0356 14.0414L20.0347 14.043C20.0345 14.0434 20.0339 14.0446 19.3105 13.6205L20.0339 14.0446C19.8119 14.4662 19.3081 14.6181 18.9086 14.3838C18.5124 14.1516 18.3675 13.627 18.5815 13.2071L18.587 13.1952C18.5946 13.1784 18.609 13.145 18.6283 13.0942C18.6668 12.9926 18.7246 12.8211 18.7847 12.574C18.9047 12.0802 19.0346 11.28 19.0346 10.1274C19.0346 8.97478 18.9047 8.17454 18.7847 7.68078C18.7246 7.43361 18.6668 7.26209 18.6283 7.16054C18.609 7.10973 18.5946 7.07629 18.587 7.05953L18.5815 7.04761C18.3675 6.62777 18.5124 6.10313 18.9086 5.8709Z" fill="white"/>
</svg>
