<svg width="21" height="19" viewBox="0 0 21 19" fill="none" xmlns="http://www.w3.org/2000/svg">
<path d="M0.00358838 9.16213C0.0483936 6.9745 0.0707962 5.88068 0.805116 4.94431C0.939146 4.7734 1.1358 4.57033 1.30062 4.43263C2.20366 3.67818 3.39593 3.67818 5.78048 3.67818C6.63241 3.67818 7.05837 3.67818 7.46442 3.56787C7.5488 3.54495 7.63228 3.51852 7.71468 3.48865C8.11123 3.34488 8.46689 3.09744 9.17822 2.60254C11.9846 0.650015 13.3878 -0.326248 14.5656 0.0978562C14.7914 0.179169 15.01 0.29654 15.2052 0.441302C16.2233 1.19634 16.3007 2.95302 16.4554 6.46638C16.5127 7.76729 16.5517 8.88069 16.5517 9.5C16.5517 10.1193 16.5127 11.2327 16.4554 12.5336C16.3007 16.047 16.2233 17.8037 15.2052 18.5587C15.01 18.7035 14.7914 18.8208 14.5656 18.9021C13.3878 19.3262 11.9846 18.35 9.17822 16.3975C8.46689 15.9026 8.11123 15.6551 7.71468 15.5114C7.63228 15.4815 7.5488 15.4551 7.46442 15.4321C7.05837 15.3218 6.63241 15.3218 5.78048 15.3218C3.39594 15.3218 2.20366 15.3218 1.30062 14.5674C1.1358 14.4297 0.939146 14.2266 0.805116 14.0557C0.0707963 13.1193 0.0483937 12.0255 0.0035884 9.83787C0.00123509 9.72297 0 9.61018 0 9.5C0 9.38982 0.00123508 9.27703 0.00358838 9.16213Z" fill="white"/>
<path fill-rule="evenodd" clip-rule="evenodd" d="M18.9086 5.24394C19.3081 5.00972 19.8119 5.16162 20.0339 5.58322L19.3105 6.00732C20.0339 5.58322 20.0339 5.58322 20.0339 5.58322L20.0347 5.58475L20.0356 5.58637L20.0374 5.58992L20.0417 5.59821L20.0523 5.61958C20.0603 5.63596 20.0701 5.65663 20.0814 5.68168C20.104 5.73177 20.1326 5.79931 20.1651 5.88494C20.23 6.05629 20.3101 6.29958 20.388 6.62003C20.5439 7.26153 20.6898 8.20783 20.6898 9.50041C20.6898 10.793 20.5439 11.7393 20.388 12.3808C20.3101 12.7013 20.23 12.9445 20.1651 13.1159C20.1326 13.2015 20.104 13.2691 20.0814 13.3192C20.0701 13.3442 20.0603 13.3649 20.0523 13.3813L20.0417 13.4026L20.0374 13.4109L20.0356 13.4145L20.0347 13.4161C20.0347 13.4161 20.0339 13.4176 19.3105 12.9935L20.0339 13.4176C19.8119 13.8392 19.3081 13.9911 18.9086 13.7569C18.5124 13.5247 18.3675 13 18.5815 12.5802L18.587 12.5683C18.5946 12.5515 18.609 12.5181 18.6283 12.4672C18.6668 12.3657 18.7246 12.1942 18.7847 11.947C18.9047 11.4532 19.0346 10.653 19.0346 9.50041C19.0346 8.34783 18.9047 7.54759 18.7847 7.05383C18.7246 6.80666 18.6668 6.63514 18.6283 6.53359C18.609 6.48278 18.5946 6.44934 18.587 6.43258L18.5815 6.42066C18.3675 6.00081 18.5124 5.47618 18.9086 5.24394Z" fill="white"/>
</svg>
