<svg width="24" height="25" viewBox="0 0 24 25" fill="none" xmlns="http://www.w3.org/2000/svg">
<path d="M2 12.627C2 7.91291 2 5.55589 3.46447 4.09142C4.92893 2.62695 7.28595 2.62695 12 2.62695C16.714 2.62695 19.0711 2.62695 20.5355 4.09142C22 5.55589 22 7.91291 22 12.627C22 17.341 22 19.698 20.5355 21.1625C19.0711 22.627 16.714 22.627 12 22.627C7.28595 22.627 4.92893 22.627 3.46447 21.1625C2 19.698 2 17.341 2 12.627Z" stroke="white" stroke-width="1.5"/>
<path d="M11 16.2941C10.475 16.5082 9.89523 16.627 9.28571 16.627C6.91878 16.627 5 14.8361 5 12.627C5 10.4178 6.91878 8.62695 9.28571 8.62695C9.89523 8.62695 10.475 8.74571 11 8.95979" stroke="white" stroke-width="1.5" stroke-linecap="round"/>
<path d="M19 16.2941C18.475 16.5082 17.8952 16.627 17.2857 16.627C14.9188 16.627 13 14.8361 13 12.627C13 10.4178 14.9188 8.62695 17.2857 8.62695C17.8952 8.62695 18.475 8.74571 19 8.95979" stroke="white" stroke-width="1.5" stroke-linecap="round"/>
</svg>
