<svg width="18" height="18" viewBox="0 0 18 18" fill="none" xmlns="http://www.w3.org/2000/svg">
<path d="M5.8589 0.126959H12.141C12.3502 0.12691 12.5106 0.126873 12.6509 0.139828C13.6479 0.231941 14.464 0.798096 14.81 1.56071H3.18985C3.53591 0.798096 4.35199 0.231941 5.34903 0.139828C5.48926 0.126873 5.64967 0.12691 5.8589 0.126959Z" fill="white"/>
<path d="M3.87946 2.4416C2.6279 2.4416 1.60167 3.15539 1.25919 4.10233C1.25205 4.12207 1.24521 4.14191 1.23866 4.16185C1.597 4.05936 1.96993 3.99241 2.34745 3.9467C3.31978 3.82897 4.54859 3.82903 5.97602 3.8291L6.08261 3.82911L12.1789 3.8291C13.6063 3.82903 14.8351 3.82897 15.8075 3.9467C16.185 3.99241 16.5579 4.05936 16.9163 4.16185C16.9097 4.14191 16.9029 4.12207 16.8957 4.10233C16.5533 3.15539 15.527 2.4416 14.2755 2.4416H3.87946Z" fill="white"/>
<path fill-rule="evenodd" clip-rule="evenodd" d="M6.00515 4.83769H11.9948C15.0322 4.83769 16.5508 4.83769 17.4039 5.6765C18.257 6.5153 18.0563 7.81122 17.6548 10.4031L17.2742 12.8609C16.9594 14.8935 16.802 15.9097 15.9945 16.5184C15.187 17.127 13.9961 17.127 11.6142 17.127H6.38583C4.00393 17.127 2.81297 17.127 2.0055 16.5184C1.19803 15.9097 1.04063 14.8935 0.725832 12.8609L0.34516 10.4031C-0.0562656 7.81122 -0.256978 6.5153 0.596086 5.6765C1.44915 4.83769 2.96782 4.83769 6.00515 4.83769ZM5.4 13.7271C5.4 13.375 5.73579 13.0896 6.15 13.0896H11.85C12.2642 13.0896 12.6 13.375 12.6 13.7271C12.6 14.0792 12.2642 14.3646 11.85 14.3646H6.15C5.73579 14.3646 5.4 14.0792 5.4 13.7271Z" fill="white"/>
</svg>
