<svg width="24" height="25" viewBox="0 0 24 25" fill="none" xmlns="http://www.w3.org/2000/svg">
<path d="M10 4.62695L12 2.12695C6.47715 2.12695 2 6.60411 2 12.127C2 17.6498 6.47715 22.127 12 22.127C17.5228 22.127 22 17.6498 22 12.127C22 8.02631 19.5318 4.50215 16 2.95904" stroke="white" stroke-width="1.5" stroke-linecap="round" stroke-linejoin="round"/>
<path d="M7.5 10.627L10 8.62695V15.627" stroke="white" stroke-width="1.5" stroke-linecap="round" stroke-linejoin="round"/>
<path d="M13 13.877V10.377C13 9.41045 13.7835 8.62695 14.75 8.62695C15.7165 8.62695 16.5 9.41045 16.5 10.377V13.877C16.5 14.8435 15.7165 15.627 14.75 15.627C13.7835 15.627 13 14.8435 13 13.877Z" stroke="white" stroke-width="1.5" stroke-linecap="round"/>
</svg>
