<svg width="20" height="21" viewBox="0 0 20 21" fill="none" xmlns="http://www.w3.org/2000/svg">
<path fill-rule="evenodd" clip-rule="evenodd" d="M8.08705 0.626953L8.13953 0.626954C8.52485 0.626954 8.83721 0.939313 8.83721 1.32463C8.83721 1.70994 8.52485 2.0223 8.13953 2.0223C6.36575 2.0223 5.10559 2.02378 4.14963 2.15231C3.21373 2.27814 2.67452 2.51411 2.28084 2.90779C1.88716 3.30148 1.65119 3.84068 1.52536 4.77658C1.39683 5.73255 1.39535 6.9927 1.39535 8.76649C1.39535 9.1518 1.08299 9.46416 0.697675 9.46416C0.31236 9.46416 6.31854e-07 9.1518 6.31854e-07 8.76649L2.99177e-07 8.71401C-1.44495e-05 7.00446 -2.61983e-05 5.65039 0.142451 4.59065C0.289082 3.50003 0.598028 2.61728 1.29418 1.92113C1.99033 1.22498 2.87307 0.916035 3.9637 0.769404C5.02343 0.626927 6.37751 0.626939 8.08705 0.626953ZM15.8504 2.15231C14.8944 2.02378 13.6343 2.0223 11.8605 2.0223C11.4752 2.0223 11.1628 1.70994 11.1628 1.32463C11.1628 0.939313 11.4752 0.626954 11.8605 0.626954L11.9129 0.626953C13.6225 0.626939 14.9766 0.626927 16.0363 0.769404C17.1269 0.916035 18.0097 1.22498 18.7058 1.92113C19.402 2.61728 19.7109 3.50003 19.8575 4.59065C20 5.65039 20 7.00447 20 8.71401V8.76649C20 9.1518 19.6876 9.46416 19.3023 9.46416C18.917 9.46416 18.6046 9.1518 18.6046 8.76649C18.6046 6.9927 18.6032 5.73255 18.4746 4.77658C18.3488 3.84068 18.1128 3.30148 17.7192 2.90779C17.3255 2.51411 16.7863 2.27814 15.8504 2.15231ZM0.697675 11.7897C1.08299 11.7897 1.39535 12.1021 1.39535 12.4874C1.39535 14.2612 1.39683 15.5214 1.52536 16.4773C1.65119 17.4132 1.88716 17.9524 2.28084 18.3461C2.67452 18.7398 3.21373 18.9758 4.14963 19.1016C5.10559 19.2301 6.36575 19.2316 8.13953 19.2316C8.52485 19.2316 8.83721 19.544 8.83721 19.9293C8.83721 20.3146 8.52485 20.627 8.13953 20.627H8.08706C6.37751 20.627 5.02343 20.627 3.9637 20.4845C2.87307 20.3379 1.99033 20.0289 1.29418 19.3328C0.598028 18.6366 0.289082 17.7539 0.142451 16.6633C-2.61983e-05 15.6035 -1.44495e-05 14.2494 2.99177e-07 12.5399L6.31854e-07 12.4874C6.31854e-07 12.1021 0.31236 11.7897 0.697675 11.7897ZM19.3023 11.7897C19.6876 11.7897 20 12.1021 20 12.4874V12.5399C20 14.2494 20 15.6035 19.8575 16.6633C19.7109 17.7539 19.402 18.6366 18.7058 19.3328C18.0097 20.0289 17.1269 20.3379 16.0363 20.4845C14.9766 20.627 13.6225 20.627 11.9129 20.627H11.8605C11.4752 20.627 11.1628 20.3146 11.1628 19.9293C11.1628 19.544 11.4752 19.2316 11.8605 19.2316C13.6343 19.2316 14.8944 19.2301 15.8504 19.1016C16.7863 18.9758 17.3255 18.7398 17.7192 18.3461C18.1128 17.9524 18.3488 17.4132 18.4746 16.4773C18.6032 15.5214 18.6046 14.2612 18.6046 12.4874C18.6046 12.1021 18.917 11.7897 19.3023 11.7897Z" fill="white"/>
</svg>
