<svg width="22" height="20" viewBox="0 0 22 20" fill="none" xmlns="http://www.w3.org/2000/svg">
<path fill-rule="evenodd" clip-rule="evenodd" d="M19.5145 4.0664C19.892 3.89605 20.3362 4.06403 20.5065 4.4416C20.9736 5.47674 21.5 7.20958 21.5 9.75C21.5 11.9416 21.1082 13.5329 20.7 14.5942C20.4962 15.124 20.2894 15.5192 20.1275 15.789C20.0466 15.9238 19.977 16.0272 19.9248 16.1004C19.8986 16.1369 19.8769 16.1659 19.8602 16.1875C19.8518 16.1983 19.8448 16.2072 19.8391 16.2143L19.8316 16.2236L19.8286 16.2272L19.8273 16.2288C19.8273 16.2288 19.8262 16.2301 19.25 15.75L19.8262 16.2301C19.561 16.5483 19.0881 16.5913 18.7699 16.3262C18.4532 16.0623 18.4091 15.5926 18.67 15.2745C18.67 15.2745 18.6718 15.2722 18.6735 15.27C18.6788 15.2632 18.6893 15.2494 18.7042 15.2285C18.7339 15.1868 18.7815 15.1168 18.8413 15.0173C18.9606 14.8183 19.1288 14.501 19.3 14.0558C19.6418 13.1671 20 11.7584 20 9.75C20 7.42366 19.5194 5.90099 19.1393 5.05849C18.9689 4.68093 19.1369 4.23675 19.5145 4.0664Z" fill="white"/>
<path fill-rule="evenodd" clip-rule="evenodd" d="M17.414 7.01566C17.8196 6.93146 18.2166 7.19198 18.3008 7.59754C18.4109 8.12802 18.5 8.83894 18.5 9.75C18.5 10.8601 18.3678 11.6728 18.2265 12.2238C18.1559 12.499 18.0833 12.7079 18.0245 12.8551C17.9951 12.9286 17.9691 12.9867 17.9486 13.0297C17.9384 13.0512 17.9295 13.0689 17.9223 13.083L17.9126 13.1014L17.9088 13.1085L17.9071 13.1115L17.9063 13.1129C17.9063 13.1129 17.9056 13.1142 17.25 12.75L17.9056 13.1142C17.7045 13.4763 17.2479 13.6068 16.8858 13.4056C16.5268 13.2062 16.3955 12.7556 16.5893 12.395L16.5943 12.3848C16.6012 12.3704 16.6143 12.3417 16.6318 12.298C16.6667 12.2108 16.7191 12.0635 16.7735 11.8512C16.8822 11.4272 17 10.7399 17 9.75C17 8.93728 16.9206 8.3287 16.8321 7.90246C16.7479 7.49689 17.0084 7.09986 17.414 7.01566Z" fill="white"/>
<path d="M20.7803 1.28033C21.0732 0.987437 21.0732 0.512563 20.7803 0.21967C20.4874 -0.0732233 20.0126 -0.0732233 19.7197 0.21967L15.2705 4.66886C15.2246 4.14532 15.1646 3.68197 15.077 3.27977C14.9052 2.49135 14.6003 1.80581 13.9609 1.35646C13.7259 1.19128 13.4642 1.05809 13.1923 0.965307C12.3741 0.686101 11.5608 0.909284 10.7348 1.31055C9.92124 1.70576 8.93412 2.35663 7.70324 3.16822L7.43647 3.34411C6.98856 3.63944 6.83448 3.73815 6.67513 3.80848C6.50452 3.88378 6.3252 3.93757 6.14132 3.96862C5.96956 3.99762 5.7866 4.00003 5.25008 4.00003L5.08906 3.99998C3.87215 3.99933 3.02659 3.99889 2.27496 4.34664C1.58016 4.6681 0.911414 5.29732 0.548282 5.97128C0.155663 6.69996 0.109593 7.462 0.0440874 8.54554L0.0361785 8.676C0.013733 9.04426 0 9.40845 0 9.75003C0 10.0916 0.013733 10.4558 0.0361785 10.8241L0.0440874 10.9545C0.109593 12.0381 0.155663 12.8001 0.548282 13.5288C0.911414 14.2027 1.58016 14.832 2.27496 15.1534C2.88551 15.4359 3.55803 15.4886 4.44121 15.4981L1.71967 18.2197C1.42678 18.5126 1.42678 18.9874 1.71967 19.2803C2.01256 19.5732 2.48744 19.5732 2.78033 19.2803L20.7803 1.28033Z" fill="white"/>
<path d="M15.5 9.75C15.5 9.33579 15.1642 9 14.75 9C14.5554 9 14.3781 9.07414 14.2448 9.19571L14.1735 9.27027L8.17494 15.5441C7.82947 15.9054 7.90952 16.4941 8.33893 16.7501C9.37771 17.4308 10.2375 17.9747 10.9704 18.299C11.7127 18.6273 12.4503 18.7879 13.1923 18.5347C13.4642 18.4419 13.7259 18.3088 13.9609 18.1436C14.667 17.6474 14.9659 16.8634 15.1278 15.9639C15.287 15.0796 15.3414 13.9076 15.4092 12.4477L15.4119 12.3902C15.4637 11.2752 15.5 10.302 15.5 9.75Z" fill="white"/>
</svg>
