<svg width="24" height="25" viewBox="0 0 24 25" fill="none" xmlns="http://www.w3.org/2000/svg">
<path d="M14 4.62695L12 2.12695C17.5228 2.12695 22 6.60411 22 12.127C22 17.6498 17.5228 22.127 12 22.127C6.47715 22.127 2 17.6498 2 12.127C2 8.02631 4.46819 4.50215 8 2.95904" stroke="white" stroke-width="1.5" stroke-linecap="round" stroke-linejoin="round"/>
<path d="M7.5 10.627L10 8.62695V15.627" stroke="white" stroke-width="1.5" stroke-linecap="round" stroke-linejoin="round"/>
<path d="M12.5 13.877V10.377C12.5 9.41045 13.2835 8.62695 14.25 8.62695C15.2165 8.62695 16 9.41045 16 10.377V13.877C16 14.8435 15.2165 15.627 14.25 15.627C13.2835 15.627 12.5 14.8435 12.5 13.877Z" stroke="white" stroke-width="1.5" stroke-linecap="round"/>
</svg>
