<svg width="24" height="25" viewBox="0 0 24 25" fill="none" xmlns="http://www.w3.org/2000/svg">
<circle cx="12" cy="12.627" r="3" stroke="white" stroke-width="1.5"/>
<path d="M13.7639 2.77919C13.3963 2.62695 12.9304 2.62695 11.9985 2.62695C11.0666 2.62695 10.6007 2.62695 10.2332 2.77919C9.7431 2.98218 9.35375 3.37153 9.15076 3.86159C9.0581 4.08529 9.02184 4.34545 9.00765 4.72494C8.98679 5.28263 8.70079 5.79885 8.21748 6.07788C7.73417 6.35692 7.14412 6.34649 6.65073 6.08571C6.31498 5.90825 6.07154 5.80958 5.83147 5.77797C5.30558 5.70873 4.77372 5.85125 4.3529 6.17415C4.03728 6.41633 3.80431 6.81985 3.33837 7.62688C2.87243 8.43392 2.63946 8.83744 2.58753 9.23186C2.51829 9.75775 2.6608 10.2896 2.98371 10.7104C3.1311 10.9025 3.33824 11.064 3.65972 11.266C4.13233 11.5629 4.43643 12.0688 4.43639 12.627C4.43636 13.1851 4.13228 13.6909 3.65972 13.9878C3.33818 14.1898 3.13101 14.3513 2.98361 14.5434C2.66071 14.9642 2.5182 15.4961 2.58743 16.022C2.63936 16.4164 2.87233 16.8199 3.33827 17.627C3.80421 18.434 4.03718 18.8375 4.3528 19.0797C4.77362 19.4026 5.30548 19.5451 5.83137 19.4759C6.07143 19.4443 6.31486 19.3456 6.65057 19.1682C7.14401 18.9074 7.73409 18.8969 8.21743 19.176C8.70077 19.455 8.98679 19.9713 9.00765 20.529C9.02184 20.9085 9.05811 21.1686 9.15076 21.3923C9.35375 21.8824 9.7431 22.2717 10.2332 22.4747C10.6007 22.627 11.0666 22.627 11.9985 22.627C12.9304 22.627 13.3963 22.627 13.7639 22.4747C14.2539 22.2717 14.6433 21.8824 14.8463 21.3923C14.9389 21.1686 14.9752 20.9084 14.9894 20.5289C15.0103 19.9713 15.2962 19.455 15.7795 19.176C16.2628 18.8969 16.853 18.9073 17.3464 19.1681C17.6821 19.3455 17.9255 19.4442 18.1656 19.4758C18.6915 19.545 19.2233 19.4025 19.6442 19.0796C19.9598 18.8374 20.1927 18.4339 20.6587 17.6269C21.1246 16.8198 21.3576 16.4163 21.4095 16.0219C21.4788 15.496 21.3362 14.9642 21.0133 14.5433C20.8659 14.3512 20.6588 14.1898 20.3373 13.9878C19.8647 13.6908 19.5606 13.185 19.5607 12.6269C19.5607 12.0688 19.8647 11.563 20.3373 11.2661C20.6588 11.0641 20.866 10.9026 21.0134 10.7105C21.3363 10.2897 21.4789 9.75782 21.4096 9.23193C21.3577 8.83751 21.1247 8.43399 20.6588 7.62695C20.1928 6.81992 19.9599 6.4164 19.6442 6.17422C19.2234 5.85131 18.6916 5.7088 18.1657 5.77804C17.9256 5.80964 17.6822 5.90831 17.3465 6.08575C16.853 6.34655 16.263 6.35697 15.7796 6.07791C15.2963 5.79886 15.0103 5.28261 14.9894 4.72489C14.9752 4.34543 14.9389 4.08528 14.8463 3.86159C14.6433 3.37153 14.2539 2.98218 13.7639 2.77919Z" stroke="white" stroke-width="1.5"/>
</svg>
